{"asset":{"version":"2.0","generator":"Blockbench 4.11.1 glTF exporter"},"scenes":[{"nodes":[1],"name":"blockbench_export"}],"scene":0,"nodes":[{"translation":[0,0.25,0],"name":"sphere","mesh":0},{"children":[0]}],"bufferViews":[{"buffer":0,"byteOffset":0,"byteLength":37440,"target":34962,"byteStride":12},{"buffer":0,"byteOffset":37440,"byteLength":37440,"target":34962,"byteStride":12},{"buffer":0,"byteOffset":74880,"byteLength":24960,"target":34962,"byteStride":8},{"buffer":0,"byteOffset":99840,"byteLength":9120,"target":34963}],"buffers":[{"byteLength":108960,"uri":"data:application/octet-stream;base64,"}],"accessors":[{"bufferView":0,"componentType":5126,"count":3120,"max":[0.3125,0.3125,0.3125],"min":[-0.3125,-0.3125,-0.3125],"type":"VEC3"},{"bufferView":1,"componentType":5126,"count":3120,"max":[0.9969173073768616,0.9969173073768616,0.9969173073768616],"min":[-0.9969173073768616,-0.9969173073768616,-0.9969173073768616],"type":"VEC3"},{"bufferView":2,"componentType":5126,"count":3120,"max":[0.014762500301003456,0.01480567455291748],"min":[0,0],"type":"VEC2"},{"bufferView":3,"componentType":5123,"count":4560,"max":[3119],"min":[0],"type":"SCALAR"}],"materials":[{"pbrMetallicRoughness":{"metallicFactor":0,"roughnessFactor":1},"alphaMode":"MASK","alphaCutoff":0.05,"doubleSided":true}],"meshes":[{"primitives":[{"mode":4,"attributes":{"POSITION":0,"NORMAL":1,"TEXCOORD_0":2},"indices":3,"material":0}]}]}