{"asset":{"version":"2.0","generator":"Blockbench 4.11.1 glTF exporter"},"scenes":[{"nodes":[22],"name":"blockbench_export"}],"scene":0,"nodes":[{"translation":[0,0.3125,-0.012500000000000011],"name":"Body","mesh":0},{"rotation":[0.25881904510252074,0,0,0.9659258262890683],"translation":[0.25,0.1875,0.3125],"name":"sphere","mesh":1},{"translation":[0.25,0.0625,0.375],"name":"sphere","mesh":2},{"translation":[-0.25,0.0625,0.375],"name":"sphere","mesh":3},{"rotation":[0.25881904510252074,0,0,0.9659258262890683],"translation":[-0.25,0.1875,0.3125],"name":"sphere","mesh":4},{"rotation":[0.25881904510252074,0,0,0.9659258262890683],"translation":[-0.25,0.1875,-0.375],"name":"sphere","mesh":5},{"translation":[-0.25,0.0625,-0.5],"name":"sphere","mesh":6},{"translation":[0.25,0.0625,-0.5],"name":"sphere","mesh":7},{"rotation":[0.25881904510252074,0,0,0.9659258262890683],"translation":[0.25,0.1875,-0.375],"name":"sphere","mesh":8},{"rotation":[0.25881904510252074,0,0,0.9659258262890683],"translation":[0.265625,0.1875,-0.390625],"name":"sphere","mesh":9},{"rotation":[0.19082141628892613,-0.17485561241569902,0.6525700295239597,0.7121552207625227],"translation":[0.1875,0.078125,-0.5],"name":"sphere","mesh":10},{"translation":[0.078125,0.078125,-0.49687500000000007],"name":"sphere","mesh":11},{"rotation":[-0.19509032201612825,0,0,0.9807852804032304],"translation":[0,0.4375,0.5],"name":"sphere","mesh":12},{"translation":[0.125,-0.125,-0.0625],"name":"Head","mesh":13},{"rotation":[0,0,0.21643961393810288,0.9762960071199334],"name":"Ear Right","mesh":14},{"rotation":[0,0,-0.3214394653031616,0.9469301294951057],"translation":[0.25,0,0],"name":"Ear Left","mesh":15},{"translation":[-0.125,0.75,-0.4375],"name":"Head","children":[13,14,15]},{"translation":[0.125,0,-0.04375000000000007],"name":"sphere","mesh":16},{"rotation":[0.25881904510252074,0,0,0.9659258262890683],"translation":[-0.0625,0.0625,0.0625],"name":"sphere","mesh":17},{"rotation":[0.19082141628892613,-0.17485561241569902,0.6525700295239597,0.7121552207625227],"name":"sphere","mesh":18},{"translation":[-0.25,0.0625,-0.4375],"name":"RightFrontLeg","children":[17,18,19]},{"rotation":[0,0.9997620270799091,0,0.02181488503456116],"translation":[0.4375,0.125,-0.6875],"name":"bone"},{"children":[0,1,2,3,4,5,6,7,8,9,10,11,12,16,20,21]}],"bufferViews":[{"buffer":0,"byteOffset":0,"byteLength":3168,"target":34962,"byteStride":12},{"buffer":0,"byteOffset":3168,"byteLength":3168,"target":34962,"byteStride":12},{"buffer":0,"byteOffset":6336,"byteLength":2112,"target":34962,"byteStride":8},{"buffer":0,"byteOffset":8448,"byteLength":720,"target":34963},{"buffer":0,"byteOffset":9168,"byteLength":3168,"target":34962,"byteStride":12},{"buffer":0,"byteOffset":12336,"byteLength":3168,"target":34962,"byteStride":12},{"buffer":0,"byteOffset":15504,"byteLength":2112,"target":34962,"byteStride":8},{"buffer":0,"byteOffset":17616,"byteLength":720,"target":34963},{"buffer":0,"byteOffset":18336,"byteLength":3168,"target":34962,"byteStride":12},{"buffer":0,"byteOffset":21504,"byteLength":3168,"target":34962,"byteStride":12},{"buffer":0,"byteOffset":24672,"byteLength":2112,"target":34962,"byteStride":8},{"buffer":0,"byteOffset":26784,"byteLength":720,"target":34963},{"buffer":0,"byteOffset":27504,"byteLength":3168,"target":34962,"byteStride":12},{"buffer":0,"byteOffset":30672,"byteLength":3168,"target":34962,"byteStride":12},{"buffer":0,"byteOffset":33840,"byteLength":2112,"target":34962,"byteStride":8},{"buffer":0,"byteOffset":35952,"byteLength":720,"target":34963},{"buffer":0,"byteOffset":36672,"byteLength":3168,"target":34962,"byteStride":12},{"buffer":0,"byteOffset":39840,"byteLength":3168,"target":34962,"byteStride":12},{"buffer":0,"byteOffset":43008,"byteLength":2112,"target":34962,"byteStride":8},{"buffer":0,"byteOffset":45120,"byteLength":720,"target":34963},{"buffer":0,"byteOffset":45840,"byteLength":3168,"target":34962,"byteStride":12},{"buffer":0,"byteOffset":49008,"byteLength":3168,"target":34962,"byteStride":12},{"buffer":0,"byteOffset":52176,"byteLength":2112,"target":34962,"byteStride":8},{"buffer":0,"byteOffset":54288,"byteLength":720,"target":34963},{"buffer":0,"byteOffset":55008,"byteLength":3168,"target":34962,"byteStride":12},{"buffer":0,"byteOffset":58176,"byteLength":3168,"target":34962,"byteStride":12},{"buffer":0,"byteOffset":61344,"byteLength":2112,"target":34962,"byteStride":8},{"buffer":0,"byteOffset":63456,"byteLength":720,"target":34963},{"buffer":0,"byteOffset":64176,"byteLength":3168,"target":34962,"byteStride":12},{"buffer":0,"byteOffset":67344,"byteLength":3168,"target":34962,"byteStride":12},{"buffer":0,"byteOffset":70512,"byteLength":2112,"target":34962,"byteStride":8},{"buffer":0,"byteOffset":72624,"byteLength":720,"target":34963},{"buffer":0,"byteOffset":73344,"byteLength":3168,"target":34962,"byteStride":12},{"buffer":0,"byteOffset":76512,"byteLength":3168,"target":34962,"byteStride":12},{"buffer":0,"byteOffset":79680,"byteLength":2112,"target":34962,"byteStride":8},{"buffer":0,"byteOffset":81792,"byteLength":720,"target":34963},{"buffer":0,"byteOffset":82512,"byteLength":3168,"target":34962,"byteStride":12},{"buffer":0,"byteOffset":85680,"byteLength":3168,"target":34962,"byteStride":12},{"buffer":0,"byteOffset":88848,"byteLength":2112,"target":34962,"byteStride":8},{"buffer":0,"byteOffset":90960,"byteLength":720,"target":34963},{"buffer":0,"byteOffset":91680,"byteLength":3168,"target":34962,"byteStride":12},{"buffer":0,"byteOffset":94848,"byteLength":3168,"target":34962,"byteStride":12},{"buffer":0,"byteOffset":98016,"byteLength":2112,"target":34962,"byteStride":8},{"buffer":0,"byteOffset":100128,"byteLength":720,"target":34963},{"buffer":0,"byteOffset":100848,"byteLength":3168,"target":34962,"byteStride":12},{"buffer":0,"byteOffset":104016,"byteLength":3168,"target":34962,"byteStride":12},{"buffer":0,"byteOffset":107184,"byteLength":2112,"target":34962,"byteStride":8},{"buffer":0,"byteOffset":109296,"byteLength":720,"target":34963},{"buffer":0,"byteOffset":110016,"byteLength":3168,"target":34962,"byteStride":12},{"buffer":0,"byteOffset":113184,"byteLength":3168,"target":34962,"byteStride":12},{"buffer":0,"byteOffset":116352,"byteLength":2112,"target":34962,"byteStride":8},{"buffer":0,"byteOffset":118464,"byteLength":720,"target":34963},{"buffer":0,"byteOffset":119184,"byteLength":3168,"target":34962,"byteStride":12},{"buffer":0,"byteOffset":122352,"byteLength":3168,"target":34962,"byteStride":12},{"buffer":0,"byteOffset":125520,"byteLength":2112,"target":34962,"byteStride":8},{"buffer":0,"byteOffset":127632,"byteLength":720,"target":34963},{"buffer":0,"byteOffset":128352,"byteLength":192,"target":34962,"byteStride":12},{"buffer":0,"byteOffset":128544,"byteLength":192,"target":34962,"byteStride":12},{"buffer":0,"byteOffset":128736,"byteLength":128,"target":34962,"byteStride":8},{"buffer":0,"byteOffset":128864,"byteLength":36,"target":34963},{"buffer":0,"byteOffset":128900,"byteLength":192,"target":34962,"byteStride":12},{"buffer":0,"byteOffset":129092,"byteLength":192,"target":34962,"byteStride":12},{"buffer":0,"byteOffset":129284,"byteLength":128,"target":34962,"byteStride":8},{"buffer":0,"byteOffset":129412,"byteLength":36,"target":34963},{"buffer":0,"byteOffset":129448,"byteLength":3168,"target":34962,"byteStride":12},{"buffer":0,"byteOffset":132616,"byteLength":3168,"target":34962,"byteStride":12},{"buffer":0,"byteOffset":135784,"byteLength":2112,"target":34962,"byteStride":8},{"buffer":0,"byteOffset":137896,"byteLength":720,"target":34963},{"buffer":0,"byteOffset":138616,"byteLength":3168,"target":34962,"byteStride":12},{"buffer":0,"byteOffset":141784,"byteLength":3168,"target":34962,"byteStride":12},{"buffer":0,"byteOffset":144952,"byteLength":2112,"target":34962,"byteStride":8},{"buffer":0,"byteOffset":147064,"byteLength":720,"target":34963},{"buffer":0,"byteOffset":147784,"byteLength":3168,"target":34962,"byteStride":12},{"buffer":0,"byteOffset":150952,"byteLength":3168,"target":34962,"byteStride":12},{"buffer":0,"byteOffset":154120,"byteLength":2112,"target":34962,"byteStride":8},{"buffer":0,"byteOffset":156232,"byteLength":720,"target":34963}],"buffers":[{"byteLength":156952,"uri":"data:application/octet-stream;base64,"}],"accessors":[{"bufferView":0,"componentType":5126,"count":264,"max":[0.375,0.3125,0.5],"min":[-0.375,-0.3125,-0.5],"type":"VEC3"},{"bufferView":1,"componentType":5126,"count":264,"max":[0.9519979357719421,0.9862654209136963,0.9190959930419922],"min":[-0.9519979357719421,-0.9862654209136963,-0.9190959930419922],"type":"VEC3"},{"bufferView":2,"componentType":5126,"count":264,"max":[0.26794999837875366,0.25882500410079956],"min":[0,0],"type":"VEC2"},{"bufferView":3,"componentType":5123,"count":360,"max":[263],"min":[0],"type":"SCALAR"},{"bufferView":4,"componentType":5126,"count":264,"max":[0.09375,0.15625,0.09375],"min":[-0.09375,-0.15625,-0.09375],"type":"VEC3"},{"bufferView":5,"componentType":5126,"count":264,"max":[0.9873218536376953,0.9130857586860657,0.9873218536376953],"min":[-0.9873218536376953,-0.9130857586860657,-0.9873218536376953],"type":"VEC3"},{"bufferView":6,"componentType":5126,"count":264,"max":[0.0502374991774559,0.04852497577667236],"min":[0,0],"type":"VEC2"},{"bufferView":7,"componentType":5123,"count":360,"max":[263],"min":[0],"type":"SCALAR"},{"bufferView":8,"componentType":5126,"count":264,"max":[0.09375,0.09375,0.09375],"min":[-0.09375,-0.09375,-0.09375],"type":"VEC3"},{"bufferView":9,"componentType":5126,"count":264,"max":[0.9659258127212524,0.9659258127212524,0.9659258127212524],"min":[-0.9659258127212524,-0.9659258127212524,-0.9659258127212524],"type":"VEC3"},{"bufferView":10,"componentType":5126,"count":264,"max":[0.0502374991774559,0.04852497577667236],"min":[0,0],"type":"VEC2"},{"bufferView":11,"componentType":5123,"count":360,"max":[263],"min":[0],"type":"SCALAR"},{"bufferView":12,"componentType":5126,"count":264,"max":[0.09375,0.09375,0.09375],"min":[-0.09375,-0.09375,-0.09375],"type":"VEC3"},{"bufferView":13,"componentType":5126,"count":264,"max":[0.9659258127212524,0.9659258127212524,0.9659258127212524],"min":[-0.9659258127212524,-0.9659258127212524,-0.9659258127212524],"type":"VEC3"},{"bufferView":14,"componentType":5126,"count":264,"max":[0.0502374991774559,0.04852497577667236],"min":[0,0],"type":"VEC2"},{"bufferView":15,"componentType":5123,"count":360,"max":[263],"min":[0],"type":"SCALAR"},{"bufferView":16,"componentType":5126,"count":264,"max":[0.09375,0.15625,0.09375],"min":[-0.09375,-0.15625,-0.09375],"type":"VEC3"},{"bufferView":17,"componentType":5126,"count":264,"max":[0.9873218536376953,0.9130857586860657,0.9873218536376953],"min":[-0.9873218536376953,-0.9130857586860657,-0.9873218536376953],"type":"VEC3"},{"bufferView":18,"componentType":5126,"count":264,"max":[0.0502374991774559,0.04852497577667236],"min":[0,0],"type":"VEC2"},{"bufferView":19,"componentType":5123,"count":360,"max":[263],"min":[0],"type":"SCALAR"},{"bufferView":20,"componentType":5126,"count":264,"max":[0.09375,0.15625,0.09375],"min":[-0.09375,-0.15625,-0.09375],"type":"VEC3"},{"bufferView":21,"componentType":5126,"count":264,"max":[0.9873218536376953,0.9130857586860657,0.9873218536376953],"min":[-0.9873218536376953,-0.9130857586860657,-0.9873218536376953],"type":"VEC3"},{"bufferView":22,"componentType":5126,"count":264,"max":[0.0502374991774559,0.04852497577667236],"min":[0,0],"type":"VEC2"},{"bufferView":23,"componentType":5123,"count":360,"max":[263],"min":[0],"type":"SCALAR"},{"bufferView":24,"componentType":5126,"count":264,"max":[0.09375,0.09375,0.09375],"min":[-0.09375,-0.09375,-0.09375],"type":"VEC3"},{"bufferView":25,"componentType":5126,"count":264,"max":[0.9659258127212524,0.9659258127212524,0.9659258127212524],"min":[-0.9659258127212524,-0.9659258127212524,-0.9659258127212524],"type":"VEC3"},{"bufferView":26,"componentType":5126,"count":264,"max":[0.0502374991774559,0.04852497577667236],"min":[0,0],"type":"VEC2"},{"bufferView":27,"componentType":5123,"count":360,"max":[263],"min":[0],"type":"SCALAR"},{"bufferView":28,"componentType":5126,"count":264,"max":[0.09375,0.09375,0.09375],"min":[-0.09375,-0.09375,-0.09375],"type":"VEC3"},{"bufferView":29,"componentType":5126,"count":264,"max":[0.9659258127212524,0.9659258127212524,0.9659258127212524],"min":[-0.9659258127212524,-0.9659258127212524,-0.9659258127212524],"type":"VEC3"},{"bufferView":30,"componentType":5126,"count":264,"max":[0.0502374991774559,0.04852497577667236],"min":[0,0],"type":"VEC2"},{"bufferView":31,"componentType":5123,"count":360,"max":[263],"min":[0],"type":"SCALAR"},{"bufferView":32,"componentType":5126,"count":264,"max":[0.09375,0.15625,0.09375],"min":[-0.09375,-0.15625,-0.09375],"type":"VEC3"},{"bufferView":33,"componentType":5126,"count":264,"max":[0.9873218536376953,0.9130857586860657,0.9873218536376953],"min":[-0.9873218536376953,-0.9130857586860657,-0.9873218536376953],"type":"VEC3"},{"bufferView":34,"componentType":5126,"count":264,"max":[0.0502374991774559,0.04852497577667236],"min":[0,0],"type":"VEC2"},{"bufferView":35,"componentType":5123,"count":360,"max":[263],"min":[0],"type":"SCALAR"},{"bufferView":36,"componentType":5126,"count":264,"max":[0.09375,0.15625,0.09375],"min":[-0.09375,-0.15625,-0.09375],"type":"VEC3"},{"bufferView":37,"componentType":5126,"count":264,"max":[0.9873218536376953,0.9130857586860657,0.9873218536376953],"min":[-0.9873218536376953,-0.9130857586860657,-0.9873218536376953],"type":"VEC3"},{"bufferView":38,"componentType":5126,"count":264,"max":[0.0502374991774559,0.04852497577667236],"min":[0,0],"type":"VEC2"},{"bufferView":39,"componentType":5123,"count":360,"max":[263],"min":[0],"type":"SCALAR"},{"bufferView":40,"componentType":5126,"count":264,"max":[0.09375,0.15625,0.09375],"min":[-0.09375,-0.15625,-0.09375],"type":"VEC3"},{"bufferView":41,"componentType":5126,"count":264,"max":[0.9873218536376953,0.9130857586860657,0.9873218536376953],"min":[-0.9873218536376953,-0.9130857586860657,-0.9873218536376953],"type":"VEC3"},{"bufferView":42,"componentType":5126,"count":264,"max":[0.0502374991774559,0.04852497577667236],"min":[0,0],"type":"VEC2"},{"bufferView":43,"componentType":5123,"count":360,"max":[263],"min":[0],"type":"SCALAR"},{"bufferView":44,"componentType":5126,"count":264,"max":[0.09375,0.09375,0.09375],"min":[-0.09375,-0.09375,-0.09375],"type":"VEC3"},{"bufferView":45,"componentType":5126,"count":264,"max":[0.9659258127212524,0.9659258127212524,0.9659258127212524],"min":[-0.9659258127212524,-0.9659258127212524,-0.9659258127212524],"type":"VEC3"},{"bufferView":46,"componentType":5126,"count":264,"max":[0.0502374991774559,0.04852497577667236],"min":[0,0],"type":"VEC2"},{"bufferView":47,"componentType":5123,"count":360,"max":[263],"min":[0],"type":"SCALAR"},{"bufferView":48,"componentType":5126,"count":264,"max":[0.09375,0.09375,0.21875],"min":[-0.09375,-0.09375,-0.21875],"type":"VEC3"},{"bufferView":49,"componentType":5126,"count":264,"max":[0.9659258127212524,0.9934709072113037,0.8479164242744446],"min":[-0.9659258127212524,-0.9934709072113037,-0.8479164242744446],"type":"VEC3"},{"bufferView":50,"componentType":5126,"count":264,"max":[0.0502374991774559,0.04852497577667236],"min":[0,0],"type":"VEC2"},{"bufferView":51,"componentType":5123,"count":360,"max":[263],"min":[0],"type":"SCALAR"},{"bufferView":52,"componentType":5126,"count":264,"max":[0.25,0.25,0.25],"min":[-0.25,-0.25,-0.25],"type":"VEC3"},{"bufferView":53,"componentType":5126,"count":264,"max":[0.9659258127212524,0.9659258127212524,0.9659258127212524],"min":[-0.9659258127212524,-0.9659258127212524,-0.9659258127212524],"type":"VEC3"},{"bufferView":54,"componentType":5126,"count":264,"max":[0.26794999837875366,0.25882500410079956],"min":[0,0],"type":"VEC2"},{"bufferView":55,"componentType":5123,"count":360,"max":[263],"min":[0],"type":"SCALAR"},{"bufferView":56,"componentType":5126,"count":16,"max":[0.09375,0.3125,0.09375],"min":[-0.09375,0,-0.09375],"type":"VEC3"},{"bufferView":57,"componentType":5126,"count":16,"max":[0.9578262567520142,0.2873478829860687,0.9578262567520142],"min":[-0.9578262567520142,-1,-0.9578262567520142],"type":"VEC3"},{"bufferView":58,"componentType":5126,"count":16,"max":[0.1875,0.32625627517700195],"min":[0,0],"type":"VEC2"},{"bufferView":59,"componentType":5123,"count":18,"max":[15],"min":[0],"type":"SCALAR"},{"bufferView":60,"componentType":5126,"count":16,"max":[0.09375,0.3125,0.09375],"min":[-0.09375,0,-0.09375],"type":"VEC3"},{"bufferView":61,"componentType":5126,"count":16,"max":[0.9578262567520142,0.2873478829860687,0.9578262567520142],"min":[-0.9578262567520142,-1,-0.9578262567520142],"type":"VEC3"},{"bufferView":62,"componentType":5126,"count":16,"max":[0.1875,0.32625627517700195],"min":[0,0],"type":"VEC2"},{"bufferView":63,"componentType":5123,"count":18,"max":[15],"min":[0],"type":"SCALAR"},{"bufferView":64,"componentType":5126,"count":264,"max":[0.09375,0.09375,0.09375],"min":[-0.09375,-0.09375,-0.09375],"type":"VEC3"},{"bufferView":65,"componentType":5126,"count":264,"max":[0.9659258127212524,0.9659258127212524,0.9659258127212524],"min":[-0.9659258127212524,-0.9659258127212524,-0.9659258127212524],"type":"VEC3"},{"bufferView":66,"componentType":5126,"count":264,"max":[0.0502374991774559,0.04852497577667236],"min":[0,0],"type":"VEC2"},{"bufferView":67,"componentType":5123,"count":360,"max":[263],"min":[0],"type":"SCALAR"},{"bufferView":68,"componentType":5126,"count":264,"max":[0.09375,0.15625,0.09375],"min":[-0.09375,-0.15625,-0.09375],"type":"VEC3"},{"bufferView":69,"componentType":5126,"count":264,"max":[0.9873218536376953,0.9130857586860657,0.9873218536376953],"min":[-0.9873218536376953,-0.9130857586860657,-0.9873218536376953],"type":"VEC3"},{"bufferView":70,"componentType":5126,"count":264,"max":[0.0502374991774559,0.04852497577667236],"min":[0,0],"type":"VEC2"},{"bufferView":71,"componentType":5123,"count":360,"max":[263],"min":[0],"type":"SCALAR"},{"bufferView":72,"componentType":5126,"count":264,"max":[0.09375,0.15625,0.09375],"min":[-0.09375,-0.15625,-0.09375],"type":"VEC3"},{"bufferView":73,"componentType":5126,"count":264,"max":[0.9873218536376953,0.9130857586860657,0.9873218536376953],"min":[-0.9873218536376953,-0.9130857586860657,-0.9873218536376953],"type":"VEC3"},{"bufferView":74,"componentType":5126,"count":264,"max":[0.0502374991774559,0.04852497577667236],"min":[0,0],"type":"VEC2"},{"bufferView":75,"componentType":5123,"count":360,"max":[263],"min":[0],"type":"SCALAR"}],"materials":[{"pbrMetallicRoughness":{"metallicFactor":0,"roughnessFactor":1},"alphaMode":"MASK","alphaCutoff":0.05,"doubleSided":true}],"meshes":[{"primitives":[{"mode":4,"attributes":{"POSITION":0,"NORMAL":1,"TEXCOORD_0":2},"indices":3,"material":0}]},{"primitives":[{"mode":4,"attributes":{"POSITION":4,"NORMAL":5,"TEXCOORD_0":6},"indices":7,"material":0}]},{"primitives":[{"mode":4,"attributes":{"POSITION":8,"NORMAL":9,"TEXCOORD_0":10},"indices":11,"material":0}]},{"primitives":[{"mode":4,"attributes":{"POSITION":12,"NORMAL":13,"TEXCOORD_0":14},"indices":15,"material":0}]},{"primitives":[{"mode":4,"attributes":{"POSITION":16,"NORMAL":17,"TEXCOORD_0":18},"indices":19,"material":0}]},{"primitives":[{"mode":4,"attributes":{"POSITION":20,"NORMAL":21,"TEXCOORD_0":22},"indices":23,"material":0}]},{"primitives":[{"mode":4,"attributes":{"POSITION":24,"NORMAL":25,"TEXCOORD_0":26},"indices":27,"material":0}]},{"primitives":[{"mode":4,"attributes":{"POSITION":28,"NORMAL":29,"TEXCOORD_0":30},"indices":31,"material":0}]},{"primitives":[{"mode":4,"attributes":{"POSITION":32,"NORMAL":33,"TEXCOORD_0":34},"indices":35,"material":0}]},{"primitives":[{"mode":4,"attributes":{"POSITION":36,"NORMAL":37,"TEXCOORD_0":38},"indices":39,"material":0}]},{"primitives":[{"mode":4,"attributes":{"POSITION":40,"NORMAL":41,"TEXCOORD_0":42},"indices":43,"material":0}]},{"primitives":[{"mode":4,"attributes":{"POSITION":44,"NORMAL":45,"TEXCOORD_0":46},"indices":47,"material":0}]},{"primitives":[{"mode":4,"attributes":{"POSITION":48,"NORMAL":49,"TEXCOORD_0":50},"indices":51,"material":0}]},{"primitives":[{"mode":4,"attributes":{"POSITION":52,"NORMAL":53,"TEXCOORD_0":54},"indices":55,"material":0}]},{"primitives":[{"mode":4,"attributes":{"POSITION":56,"NORMAL":57,"TEXCOORD_0":58},"indices":59,"material":0}]},{"primitives":[{"mode":4,"attributes":{"POSITION":60,"NORMAL":61,"TEXCOORD_0":62},"indices":63,"material":0}]},{"primitives":[{"mode":4,"attributes":{"POSITION":64,"NORMAL":65,"TEXCOORD_0":66},"indices":67,"material":0}]},{"primitives":[{"mode":4,"attributes":{"POSITION":68,"NORMAL":69,"TEXCOORD_0":70},"indices":71,"material":0}]},{"primitives":[{"mode":4,"attributes":{"POSITION":72,"NORMAL":73,"TEXCOORD_0":74},"indices":75,"material":0}]}]}